<?xml version="1.0" encoding="utf-8"?>
<!-- Generator: Adobe Illustrator 21.1.0, SVG Export Plug-In . SVG Version: 6.00 Build 0)  -->
<svg version="1.0" id="Layer_1" xmlns="http://www.w3.org/2000/svg" xmlns:xlink="http://www.w3.org/1999/xlink" x="0px" y="0px"
	 viewBox="0 0 315.2 100" style="enable-background:new 0 0 315.2 74.6;" xml:space="preserve">
<style type="text/css">
	.st0{fill:#FFFFFF;}
</style>
<g>
	<path class="st0" d="M10.5,42.5c2.7,2.5,5.3,4.6,8,6.4c1.7,1.1,3.5,2.1,5.4,2.9c-1.6-1.3-2.9-2.9-3.9-4.7c-1.3-2.3-2.2-4.7-2.6-7.3
		c-1.6-7.8-1.2-20.6,9.5-36.8l1.6-2.5c0-0.2-0.1-0.3-0.1-0.5c-4,1-7.9,2.6-11.4,4.8c2.4,3.6,2,8.3-1.1,11.4c-3,3-7.8,3.5-11.3,1.1
		C2.5,20.8,0.9,24.5,0,28.5c4.2,0.9,7.2,4.5,7.2,8.8c0,0.5,0,1.1-0.1,1.6C8.3,40.3,9.4,41.5,10.5,42.5"/>
	<path class="st0" d="M57.3,4.6C53.8,2.5,50.1,0.9,46.2,0c-0.8,4.3-4.5,7.4-8.9,7.4c-3.2,0-6.1-1.7-7.7-4.4
		c-2.2,3.4-4.4,6.8-6.1,10.5c-1.6,3.3-2.8,6.4-3.6,9.6c-0.5,2-0.9,4-1.1,6c1.6-3.8,4.4-7,8-9.1c0.2-0.1,0.4-0.2,0.6-0.3l0.3-0.1
		c5.5-3.3,15.2-6.7,29.7-4.5C55.1,12,55,7.8,57.3,4.6"/>
	<path class="st0" d="M22.3,68.8c4-1.5,7.9-3.1,11.7-5.1c3.2-1.7,6-3.6,8.6-5.7c1.6-1.3,3-2.7,4.4-4.3c-3.3,2-7,2.9-10.8,2.8
		c-0.7,0-1.5-0.1-2.3-0.2C27.2,55.7,17,52.5,6.3,41.3C5,43.8,2.7,45.5,0,46.1c0.9,3.9,2.5,7.7,4.6,11.2c3.6-2.4,8.3-1.9,11.3,1.1
		c3.1,3.1,3.5,7.8,1.1,11.4c0.3,0.2,0.6,0.4,0.9,0.5C19.8,69.7,22.1,68.9,22.3,68.8"/>
	<path class="st0" d="M38.7,17.3c1,0.1,2,0.3,3,0.5c3.4,0.9,6.5,2.6,9,5.1c10.7,9.6,13.4,24.6,14,32.9c1.9,0,3.6,0.6,5.1,1.7
		c2.2-3.5,3.8-7.3,4.7-11.3c-4.3-0.7-7.6-4.5-7.6-8.9c0-4.4,3.2-8.2,7.6-8.9c-1-4-2.5-7.8-4.7-11.3c0.1,0.1-1.8,1-2,1.1
		c-0.7,0.3-1.5,0.5-2.3,0.5c-0.8,0.1-1.6,0.1-2.4-0.1c-1.4-0.2-2.7-0.7-4-1c-1.4-0.3-2.7-0.5-4.1-0.7c-3.6-0.5-7-0.6-10.3-0.5
		C42.7,16.6,40.7,16.8,38.7,17.3"/>
	<path class="st0" d="M61.5,48c-0.7-3.6-1.6-6.8-2.7-9.9c-0.7-1.9-1.6-3.7-2.7-5.5c0.7,3,0.7,6.2-0.1,9.2c-0.3,1.4-0.9,2.7-1.5,4.1
		c-6.3,14-21.1,21.3-29.5,24.5l-4.2,1.6c2.5,1.2,5,2.1,7.7,2.7c0.8-4.3,4.5-7.4,8.9-7.4c4.4,0,8.1,3.1,8.9,7.4
		c3.9-0.9,7.6-2.5,11.1-4.6c-2.5-3.6-2.1-8.4,1-11.5c1.2-1.2,2.6-2,4.2-2.4C62.3,52.8,62,50.3,61.5,48"/>
	<path class="st0" d="M116,54.9c-2.2,0-3.7-0.2-4.6-0.5l-10.1-18.3c-1.1-2-2.4-5.6-3.1-9h-0.4v27.2c-0.7,0.4-1.8,0.6-3.6,0.6
		c-1.6,0-2.8-0.2-3.5-0.6V19.7c1.2-0.3,2.8-0.5,4.9-0.5c2.2,0,3.7,0.2,4.8,0.5l9.5,17.4c1.2,2.3,2.5,6.1,3.1,9.1h0.4V19.9
		c0.7-0.4,1.8-0.6,3.5-0.6c1.6,0,2.8,0.2,3.5,0.6v34.5C119.6,54.7,118.1,54.9,116,54.9 M137.2,55.7c-8.7,0-13.3-5-13.3-13
		c0-8.3,4.9-13.6,12.7-13.6c7.2,0,10.5,4.5,10.5,11c0,1.6-0.3,3.4-0.7,4.6h-15c0.3,3.5,2.8,5.1,7.7,5.1c3.2,0,5.9-0.7,7.7-1.5
		c0.1,1.9-0.6,4.3-1.8,5.6C143.4,54.9,140.7,55.7,137.2,55.7 M131.3,39.5h9.3c0.4-2.6-0.5-5.1-4.1-5.1
		C133.3,34.4,131.4,36.4,131.3,39.5 M157.6,30.4c-0.6-0.3-1.8-0.6-3.6-0.6c-1.7,0-2.9,0.2-3.6,0.6v23.8c0.7,0.3,1.9,0.6,3.6,0.6
		c1.7,0,2.9-0.2,3.6-0.6V30.4z M149.7,21.5c0,2.9,1.5,4.5,4.4,4.5c2.6,0,4.3-1.6,4.3-4.5c0-2.7-1.7-4.3-4.3-4.3
		C151.5,17.2,149.7,18.8,149.7,21.5 M172.8,54.5c0.9-1.4,1.6-4.1,1.4-6.2c-0.9,0.6-1.9,0.9-3,0.9c-1.4,0-2.1-0.5-2.1-2.4V17.8
		c-3.2,0-5.5,0.5-7.2,1.4V48c0,4.4,1.5,7.6,6.4,7.6C170.1,55.7,171.6,55.2,172.8,54.5 M206.2,44.2c0-12.8-16.4-9.2-16.4-16
		c0-2.3,1.6-3.6,5.3-3.6c3.4,0,6.8,1.1,9.5,2.8c0.3-2.2-0.2-5-1.3-6.8c-2.6-1.5-5.4-2.2-8.7-2.2c-7.6,0-12.3,3.7-12.3,10.8
		c0,12.7,16.5,8.8,16.5,16c0,2.6-1.7,4.3-6.1,4.3c-3.7,0-8.4-1.2-11.1-2.8c-0.3,2.1,0.1,5.2,1.3,7.2c2.7,1.3,6.2,2,9.8,2
		C200.2,55.8,206.2,52.9,206.2,44.2 M232.3,66.2c-0.6,0.3-1.8,0.6-3.6,0.6c-1.7,0-2.9-0.2-3.6-0.6v-6.1c0-2.6,0.2-5.9,0.6-8.3h-0.4
		c-0.9,2-3.2,3.9-7.1,3.9c-5,0-9.9-3.3-9.9-12.3c0-9.4,5.4-14.3,14.3-14.3c3.8,0,7,0.9,9.7,2.6V66.2z M225.3,46.9V35.5
		c-0.7-0.3-1.7-0.5-2.9-0.5c-4.6,0-6.6,2.9-6.6,7.8c0,4.6,1.7,6.6,4.9,6.6C223,49.3,224.3,48.2,225.3,46.9 M259,54V30.4
		c-0.6-0.3-1.8-0.6-3.6-0.6s-2.9,0.2-3.6,0.6v16.5c-0.9,1.1-2.4,2.1-4.8,2.1c-2.9,0-3.7-1.5-3.7-4.2V29.5c-3.1,0-5.5,0.5-7.2,1.5
		v15.1c0,8.2,4.4,9.5,8.2,9.5c4.4,0,6.7-1.7,7.8-4h0.4l0.8,3.5C255.7,55.2,257.8,54.8,259,54 M262.6,21.5c0,2.9,1.5,4.5,4.4,4.5
		c2.6,0,4.3-1.6,4.3-4.5c0-2.7-1.7-4.3-4.3-4.3C264.4,17.2,262.6,18.8,262.6,21.5 M270.5,54.3V30.4c-0.6-0.3-1.8-0.6-3.6-0.6
		s-2.9,0.2-3.6,0.6v23.8c0.7,0.3,1.9,0.6,3.6,0.6S269.8,54.6,270.5,54.3 M287.6,29c-4.1,0-5.6,2.3-6.3,5h-0.4l-0.5-4.6
		c-2.4,0-4.5,0.4-5.8,1.1v23.6c0.7,0.3,1.9,0.6,3.6,0.6c1.7,0,2.9-0.2,3.6-0.6V40.5c0.9-2.6,2.8-4.3,5.3-4.3c1.5,0,2.5,0.3,3.4,0.8
		c0.2-0.7,0.4-1.6,0.4-3c0-1.9-0.3-3.3-1-4.5C289.4,29.2,288.6,29,287.6,29 M305.2,55.7c-8.7,0-13.3-5-13.3-13
		c0-8.3,4.9-13.6,12.7-13.6c7.2,0,10.5,4.5,10.5,11c0,1.6-0.3,3.4-0.7,4.6h-15c0.3,3.5,2.8,5.1,7.7,5.1c3.2,0,5.9-0.7,7.7-1.5
		c0.1,1.9-0.6,4.3-1.8,5.6C311.4,54.9,308.6,55.7,305.2,55.7 M299.2,39.5h9.3c0.4-2.6-0.5-5.1-4.1-5.1
		C301.3,34.4,299.4,36.4,299.2,39.5"/>
</g>
</svg>
